<?xml version="1.0" encoding="utf-8"?>
<!-- Generator: Adobe Illustrator 21.0.2, SVG Export Plug-In . SVG Version: 6.00 Build 0)  -->
<svg version="1.1" id="Layer_1" xmlns="http://www.w3.org/2000/svg" xmlns:xlink="http://www.w3.org/1999/xlink" x="0px" y="0px"
	 viewBox="0 0 251.9 137.2" style="enable-background:new 0 0 251.9 137.2;" xml:space="preserve">
<style type="text/css">
	.st0{fill:#1D6C91;}
	.st1{fill:#F0C2C2;}
</style>
<g>
	<path class="st0" d="M160.4,42.3c-0.2,0-0.3-0.1-0.5-0.1c-0.1,0-0.2,0-0.3,0c-0.1,0-0.2,0-0.2,0c-0.2,0-0.4-0.1-0.5-0.1
		c-0.5-0.3-1.1-0.4-1.7-0.5c-0.5-0.1-0.9-0.3-1.3-0.6c-0.7-0.5-1.4-1.1-2.2-1.6c-0.7-0.4-1.1-0.8-1.4-1.4c-0.5-0.9-1.1-1.3-2-1.5
		c-0.3,0-0.6-0.1-0.8-0.2c-0.5-0.1-1.1-0.2-1.6-0.2c-0.3,0-0.6,0-1,0c-0.3,0-0.6,0-0.9,0c-0.2,0-0.3,0-0.5,0.1
		c-0.2,0.1-0.4,0.1-0.7,0.2c-0.3,0.1-0.7,0.2-1,0.3c-0.5,0.1-0.9,0.2-1.2,0.2c-0.4,0-0.7,0.2-1,0.4l0,0c-0.3,0.3-0.6,0.6-0.7,0.9
		c-0.3,0.5-0.6,0.9-1,1.2c-0.6,0.5-0.9,1.1-0.9,1.9c0,0.8-0.2,1.5-0.4,2.2c-0.1,0.2-0.1,0.4-0.2,0.5c-0.1,0.2-0.1,0.5-0.2,0.7
		c-0.3,0.9-0.5,1.8-0.7,2.8c-0.2,1.1-0.7,2-1.2,2.7c-0.3,0.4-0.5,0.8-0.7,1.2l-0.2,0.3c-0.5,0.8-1.1,1.7-2,2.3
		c-0.2,0.1-0.3,0.1-0.3,0.1c-0.3-0.1-0.6,0-0.9,0.1c-0.1,0-0.2,0.1-0.2,0.1c-0.4,0.1-0.7,0.1-1,0.1c-0.7-0.1-1.3,0-1.9,0.3
		c-0.1,0.1-0.2,0.1-0.3,0.1c-0.1,0-0.2,0.1-0.2,0.1c-0.1,0-0.1,0.1-0.2,0.1c-0.2,0.1-0.4,0.1-0.6,0.3c-0.4,0.3-0.8,0.3-1.1,0.4
		c-0.8,0.1-1.6,0.2-2.3,0.2l-0.2,0c-0.2,0-0.4,0-0.6,0.1c-0.4,0.2-0.8,0.2-1.3,0.2l-0.2,0c-0.2,0-0.4,0-0.7,0c-0.5,0-1,0-1.6,0.1
		c-0.7,0.1-1.4,0.1-2,0c-1.1-0.1-2.1-0.2-3.1-0.2c0,0,0,0,0,0c-0.3,0-0.5,0-0.8,0c-0.3,0-0.6,0-0.9,0c-0.2,0-0.4,0-0.6,0
		c-0.3,0-0.5,0-0.8,0c-0.4,0-0.7,0.1-1.1,0.1c-0.3,0-0.5,0.1-0.8,0.1c-0.5,0-0.9,0.1-1.4,0c-0.2,0-0.5,0-0.7,0c-0.4,0-0.8-0.1-1.1,0
		c-0.2,0-0.5,0-0.7,0c-0.8,0.1-1.6,0.1-2.4-0.1c-0.1,0-0.2,0-0.3,0c0,0-0.1,0-0.1,0c-0.2,0-0.4,0-0.7,0.1c-0.5,0-1.1,0.1-1.6,0.2
		c-0.2,0-0.4,0-0.7,0c-0.4,0-0.7,0-1.1,0.1c-0.5,0.2-1,0.3-1.4,0.3c-0.7,0.1-1.4,0.2-2.1,0.6c-0.9,0.6-1.7,0.9-2.5,1.2
		c-0.2,0-0.3,0.1-0.5,0.2c-0.2,0.1-0.5,0.2-0.8,0.2l-0.2,0.1c-1.1,0.2-2.2,0.5-3.3,0.4c-0.1,0-0.1,0-0.1,0c0,0,0,0-0.1,0
		c-0.3,0-0.7,0-1,0c-0.8,0-1.6,0-2.4,0c-0.4,0-0.7-0.1-1.1-0.2c-0.1,0-0.2-0.1-0.4-0.1c-0.2,0-0.4-0.1-0.6-0.1
		c-0.3-0.1-0.7-0.2-1-0.2c-0.5-0.1-0.9,0.1-1.1,0.5c-0.2,0.3-0.1,0.7,0.2,1.1c0.1,0.1,0.2,0.2,0.3,0.3c0.1,0.1,0.2,0.2,0.3,0.3
		c0.2,0.3,0.5,0.5,0.7,0.7c0.1,0.1,0.2,0.2,0.3,0.3c0.3,0.3,0.7,0.7,1.1,0.9c0.2,0.1,0.5,0.2,0.7,0.4c0.5,0.3,1,0.5,1.6,0.6
		c0.7,0.4,1.4,0.5,2.2,0.5c0.2,0,0.4,0,0.6,0.1c0.6,0.1,1.2,0,1.8,0c0.2,0,0.5,0,0.7,0c0.1,0,0.2,0,0.3,0.1c0.1,0.1,0.1,0.2,0.1,0.3
		c-0.1,0.4-0.2,0.8-0.3,1.2c-0.1,0.3-0.2,0.5-0.3,0.8c-0.1,0.3-0.2,0.5-0.4,0.8L90,67.9c-0.1,0.1-0.1,0.3-0.2,0.4
		c-0.4,0.7-1,1.2-1.7,1.6c-1.2,0.7-1.6,1-1,2.6c0.2,0.5,0.4,0.9,0.6,1.4l0.2,0.4c0.3,0.8,0.3,1.7-0.1,2.5c-0.4,0.8-0.8,1.7-1,2.7
		c-0.2,0.7,0,1.3,0.7,1.8c0,0,0.1,0,0.1,0.1c0.1,0.1,0.2,0.1,0.3,0.2c0.3,0.3,0.7,0.4,1,0.4c0,0,0.1,0,0.1,0l0.5,0
		c0.8,0,1.6-0.1,2.4-0.1c0.8,0,1.5-0.3,1.9-0.9c0.1-0.2,0.3-0.5,0.1-0.8c-0.1-0.1-0.1-0.3-0.2-0.4c0,0,0-0.1,0-0.1c0,0,0,0,0,0
		c0,0,0,0,0,0c0.6,0.1,1.1,0.1,1.7,0.1c0.3,0,0.6,0,1,0c0.1,0,0.1,0,0.2,0c0.1,0,0.1,0,0.2,0c0.2,0,0.3,0,0.5,0c0.6,0,1-0.4,1.1-0.9
		c0.1-0.4,0-0.8-0.3-1c-0.4-0.3-0.8-0.6-1.2-0.9c-0.3-0.2-0.5-0.4-0.8-0.6c-0.4-0.3-0.7-0.6-1.1-1l-0.1-0.1
		c-0.4-0.4-0.3-0.9-0.3-1.3c0-0.3,0.2-0.4,0.5-0.5c0.3-0.1,0.6-0.1,0.9-0.2c0.2-0.1,0.5-0.1,0.7-0.2c0.5-0.1,1.1-0.3,1.7-0.6
		c0.2-0.1,0.4-0.2,0.6-0.2l0.1,0c0.3-0.1,0.6-0.2,0.9-0.2c0.4-0.1,0.8-0.2,1.2-0.3c0.7-0.2,1.4-0.4,2-0.6c0.4-0.1,0.7-0.1,1.1,0
		c0.7,0.2,1.5,0.3,2.3,0.3l0.3,0c1.3,0,2.6-0.1,3.9,0.1c0.3,0,0.6,0,0.9,0c0.2,0,0.5-0.1,0.7-0.1c0.1,0,0.2,0,0.4-0.1
		c1.6-0.3,3.2-0.1,4.6,0.5c0.6,0.3,1.3,0.5,1.9,0.7c0.4,0.1,0.8,0.3,1.1,0.4c1,0.4,1.8,0.6,2.6,0.6c0.1,0,0.3,0,0.4,0.1
		c0.1,0,0.2,0,0.3,0.1l0.1,0c0.3,0,0.6,0.1,0.9,0.1c0.2,0,0.4,0,0.5,0c0.7,0,1.3,0.1,2,0.2c0.8,0.2,1.5,0.3,2.1,0.3
		c0.4,0,0.8,0,1.2,0.1c0.2,0,0.3,0,0.5,0c0,0,0,0.1,0,0.1c0,0.1,0.1,0.2,0.1,0.3c0.1,0.8,0.4,1.5,0.7,1.9l0.1,0.2
		c0.4,0.6,0.7,1.1,0.9,1.7c0.2,0.6,0.7,1,1.3,1.2c0.3,0.1,0.7,0.2,1.1,0.3l0.1,0c0.9,0.2,1.9,0.2,2.8,0.2c0.4,0,0.9,0,1.3,0
		c0,0,0,0,0.1,0c0.6,0,1.1-0.3,1.3-0.9l0,0l0,0c-0.2-0.5-0.5-0.9-0.8-1.4c-0.3-0.4-0.7-0.7-1.1-0.9c-0.2-0.2-0.5-0.3-0.7-0.5
		c-0.2-0.2-0.4-0.3-0.6-0.3c0,0-0.1,0-0.1-0.1c-0.1-0.1-0.3-0.2-0.4-0.4c-0.1-0.2-0.2-0.3-0.3-0.5c0-0.1,0-0.1-0.1-0.2
		c0.5-0.4,1.1-0.8,1.7-1.1c0.3-0.2,0.6-0.3,0.9-0.5c0.1-0.1,0.3-0.1,0.5-0.2c0.6-0.1,1.2-0.4,1.8-1l0.1-0.1c0.1-0.1,0.3-0.2,0.4-0.3
		c0.3-0.2,0.6-0.4,0.8-0.6l0.1-0.1c0.5-0.5,1-0.9,1.6-1.4c0.3-0.3,0.6-0.5,0.9-0.8c0.2-0.2,0.4-0.3,0.5-0.5c0.5-0.7,0.9-1.3,1.4-2
		l0.4-0.6c0.5-0.7,0.7-1.6,0.8-2.7c0-0.5,0-1,0-1.5c0-0.2,0-0.5,0-0.7c0-0.1,0-0.1,0-0.2c0-0.2,0-0.3,0-0.5c0.2-0.6,0.2-1.1,0.2-1.7
		c0-0.2,0-0.5,0-0.7c0-0.4,0.1-0.7,0.2-1.1c0.2-0.7,0.3-1.5,0.5-2.2l0.1-0.3c0.1-0.3-0.2-0.7-0.5-0.8c-0.2-0.1-0.4-0.1-0.7,0.2
		c-0.1,0.1-0.2,0.2-0.2,0.4c-0.1,0.4-0.2,0.8-0.3,1.1c-0.1,0.4-0.2,0.9-0.3,1.3l-0.1,0.4c-0.2,0.2-0.5,0.2-0.7,0.2
		c-0.1,0-0.2,0-0.4,0c-1.3,0.2-2.6,0.6-3.4,1.8c-0.2,0.3-0.5,0.6-0.7,0.8c-0.5,0.4-0.8,0.9-1.2,1.3c-0.4,0.4-0.7,0.9-1.1,1.3
		c-0.1,0.1-0.1,0.1-0.1,0.2c0,0,0,0.1-0.1,0.1c-0.1,0.1-0.1,0.1-0.2,0.2c-0.1,0.2-0.3,0.3-0.4,0.5c-0.5,0.3-0.7,0.8-1,1.2
		c-0.1,0.1-0.1,0.2-0.2,0.3c-0.2,0.4-0.3,0.7-0.3,1.1c0.1,0.4,0,0.8-0.2,1.2c-0.1,0.2-0.2,0.4-0.3,0.5c-0.2,0.3-0.3,0.7-0.5,1
		c-0.5,0.7-0.5,1.5-0.2,2.2c0.2,0.4,0.1,0.8-0.1,1.1c-0.3,0.4-0.5,1-0.5,1.6c0,0.4-0.1,0.7-0.3,1c-0.4,0.5-0.2,0.8,0.1,1.2
		c0,0,0.1,0.1,0.1,0.1c0.1,0.1,0.2,0.2,0.3,0.3c0.3,0.7,0.9,1.1,1.7,1.4c0.5,0.1,0.9,0.4,1.3,0.8c0.1,0.1,0.1,0.1,0.1,0.2
		c0,0,0,0,0,0c-0.3,0.2-0.5,0.2-0.8,0.1c-0.5,0-1-0.1-1.6-0.1c-1-0.1-1.7-0.4-2.2-1c-0.4-0.5-0.8-1.1-1.2-1.7l-0.2-0.4
		c-0.1-0.1-0.1-0.2-0.2-0.4c0-0.1-0.1-0.1-0.1-0.2c-0.2-0.4-0.2-0.7-0.1-1c0-0.1,0.1-0.2,0.1-0.3c0.1-0.4,0.2-0.8,0.4-1.1
		c0.1-0.2,0.2-0.5,0.3-0.7c0.1-0.3,0.3-0.6,0.5-0.9c0.1-0.2,0.2-0.4,0.1-0.6c-0.1-0.2-0.3-0.3-0.6-0.3c0,0,0,0,0,0
		c-0.2,0-0.4,0.1-0.6,0.3c-0.2,0.4-0.5,0.7-0.7,1.1l-0.7,1c-0.2,0-0.3,0-0.4-0.1c-0.1-0.1-0.1-0.2-0.1-0.3c0-0.1,0-0.2,0-0.3
		c0-0.1,0-0.1,0-0.2c0-0.1,0-0.3,0-0.4l0-0.3l-0.3-0.1c-0.2-0.1-0.3-0.1-0.4-0.2c-0.1,0-0.2-0.1-0.3-0.1c-0.2-0.1-0.5-0.2-0.7-0.4
		c-0.5-0.4-1.1-0.7-1.8-1c-0.4-0.2-0.8-0.3-1.2-0.4c-0.2-0.1-0.4-0.1-0.7-0.2c-1.2-0.3-2.5-0.7-3.8-0.8c-0.3,0-0.5,0-0.8-0.1
		c-0.4,0-0.7-0.1-1.1-0.1c-0.3,0-0.6,0-0.9,0.1c-0.2,0-0.4,0.1-0.6,0.1c-0.6,0-1.3,0.2-2.1,0.5c-1,0.4-2,0.9-2.7,1.4l-0.1,0
		c-0.1,0.1-0.2,0.1-0.3,0.1c-1.2,0.2-2.5,0.3-3.8,0.3c-0.3,0-0.5,0-0.8,0c-0.3,0-0.6,0-0.9,0c-1,0-2.1,0-3.2-0.3
		c-0.5-0.2-1.1-0.2-1.8,0c-0.4,0.1-0.8,0.2-1.2,0.3c-0.2,0.1-0.3,0.1-0.5,0.2c-0.1,0-0.2,0.1-0.2,0.1c-0.2,0.1-0.3,0.1-0.4,0.1
		c-1.1,0.2-2.2,0.6-3.2,1l-0.3,0.1c-0.1,0-0.2,0.1-0.3,0.1c-0.6,0.2-1.2,0.5-1.9,0.5c0,0,0,0-0.1,0c-0.2,0-0.4,0.1-0.7,0.2l-0.1,0
		c-0.1,0.1-0.3,0.1-0.4,0.2c-0.3,0.2-0.5,0.3-0.8,0.2c-0.1,0-0.2,0.1-0.4,0.2L92.2,73c-0.2,0.1-0.3,0.3-0.5,0.5
		c-0.5,0.7-1.1,1.6-0.6,2.8c0,0.1,0.1,0.2,0.1,0.4c0,0.1,0,0.1,0,0.2c0,0.2,0.1,0.3,0.1,0.5c0.1,0.3,0.1,0.7,0.2,1
		c0.1,0.5,0.2,0.9,0.4,1.4c0,0.2,0.1,0.3,0.1,0.5c0,0,0,0,0,0c0,0-0.1,0.1-0.1,0.1c-0.9,0.4-1.8,0.2-2.8,0.1c-0.2,0-0.3,0-0.5-0.1
		c-0.1,0-0.1-0.1-0.1-0.1c0-0.1-0.1-0.2,0-0.2c0.1-0.2,0.1-0.4,0.2-0.6c0.1-0.3,0.2-0.6,0.3-1c0.1-0.4,0.2-0.7,0.4-1
		c0.2-0.2,0.3-0.5,0.3-0.7c0-0.1,0-0.3,0-0.4c0-0.8,0-1.6-0.3-2.3c-0.1-0.2-0.1-0.3-0.2-0.5c-0.2-0.6-0.4-1.1-0.5-1.7
		c0.3-0.4,0.3-0.4,0.6-0.6c0.3-0.2,0.6-0.3,0.8-0.5c0.5-0.4,1-0.8,1.4-1.6L92,69c0.8-0.1,1.6-0.2,2.4-0.3c0.3,0,0.6-0.1,0.9-0.2
		c0.2,0,0.3-0.1,0.5-0.2c0.3-0.3,0.7-0.4,1.1-0.5c0.5-0.1,0.8-0.3,1.2-0.6c0.5-0.4,1.1-0.7,1.7-1c1.5-0.6,2.9-1.1,4.3-1.4l0.1,0
		c0.5-0.1,1-0.2,1.5,0c0.8,0.3,1.7,0.3,2.7,0l0.3-0.1c0.6-0.1,1.2-0.3,1.8-0.4c1.1-0.1,2.3-0.4,3.2-1.5c0.2-0.2,0.3-0.4,0.5-0.5
		c0.3-0.3,0.7-0.6,0.9-1.1c0.5-1.1,1.5-1.9,2.4-2.5c0.2-0.1,0.4-0.2,0.5-0.2c0.5,0,0.9-0.2,1.1-0.6c0-0.1,0.1-0.1,0.2-0.1
		c0,0,0.1,0,0.1,0c0.6-0.2,2.1-0.4,2.7-0.3c0.4,0.1,0.8,0.1,1.2,0l0.1,0c0.4-0.1,0.8-0.2,1.3-0.2c0.2,0,0.4,0,0.7-0.1
		c0.1,0,0.1,0,0.2,0l0.5-0.1c0.7-0.1,1.5-0.3,2.3-0.4c0.2,0,0.4-0.1,0.7-0.3c0.2-0.1,0.3-0.2,0.5-0.3c0.1-0.1,0.2-0.1,0.3-0.2l0.1,0
		c0.1-0.1,0.3-0.2,0.4-0.2c0.5-0.1,1-0.1,1.5,0c0.1,0.4,0.3,0.7,0.2,1.1c-0.1,0.6,0.2,1.1,0.8,1.4c0.3,0.1,0.6,0.3,0.9,0.4
		c0.1,0.1,0.2,0.1,0.3,0.2l0,0c0.1,0,0.2,0.1,0.3,0.1c0.7,0,1.3,0.1,2.1,0.4c0,0,0.1,0,0.1,0c0.8,0.1,1.6,0,2.3-0.1
		c1.5-0.3,2.6-1.1,3.5-2.4c0.1-0.1,0.1-0.2,0.2-0.3c0.1-0.2,0.2-0.4,0.3-0.5c0.5-0.6,1-1.2,1.8-1.2c0.1,0,0.2,0,0.3-0.1
		c0.1,0,0.4-0.2,0.4-0.5c0-0.4,0.3-0.6,0.6-0.8c0.3-0.2,0.6-0.3,0.9-0.4c0.1,0,0.2-0.1,0.2-0.1c0.2-0.1,0.4-0.2,0.6-0.2l0.1,0.1
		c0.1,0.1,0.2,0.1,0.2,0.2l0.8,0.6c0.3,0.3,0.7,0.3,1.2,0.1c0.4-0.2,0.4-0.6,0.4-0.9l0-0.1c0-0.3-0.1-0.7-0.1-1
		c0-0.2-0.1-0.4-0.1-0.7c0-0.1,0-0.3,0-0.4c0,0,0-0.1,0-0.1c0.1-0.1,0.2-0.1,0.2-0.1c0.2-0.1,0.4-0.2,0.5-0.4
		c0.4-0.4,0.8-0.8,1.2-1.1c0.4-0.3,0.7-0.4,1.2-0.4l0.1,0c0.3,0,0.7,0,1-0.1c0.6-0.2,1.1-0.5,1.7-0.8c0.2-0.1,0.5-0.3,0.8-0.4
		c0.8-0.3,1.7-0.7,2.3-1.4c0.1-0.1,0.2-0.2,0.3-0.3c0.3-0.3,0.6-0.5,0.7-0.9c0,0,0,0,0.1-0.1c0,0,0.1-0.1,0.1-0.1
		c0.1-0.1,0.2-0.3,0.2-0.4c0.1-0.3,0.1-0.6,0.2-0.8C161,42.7,160.8,42.4,160.4,42.3z M154.6,45c-0.6,0.1-1.1,0.2-1.7,0.1
		c-0.1,0-0.3,0-0.4,0c-0.3,0.1-0.5,0.2-0.6,0.5c-0.1,0.3,0.1,0.5,0.3,0.6c0.5,0.5,1.2,0.6,1.9,0.5l0.1,0c0.3-0.1,0.7-0.2,1-0.1
		c0,0,0,0,0.1,0c-0.3,0.2-0.5,0.2-0.8,0.2c-0.2,0-0.4,0-0.5,0l-0.1,0c0,0,0,0,0,0c-1.3,0-2.4,0.5-3.4,1.6c-0.1,0.1-0.2,0.2-0.4,0.3
		l-0.1,0.1c0,0,0,0,0,0c-0.1-0.1-0.1-0.2-0.1-0.2c-0.2-0.7-0.4-1.4-0.6-2.1l-0.1-0.3c0-0.1,0-0.1-0.1-0.2c0-0.1-0.1-0.3-0.1-0.4
		c-0.3-0.6-0.5-1.3-0.7-2c-0.1-0.4-0.3-0.9-0.4-1.3c-0.2-0.6-0.5-1.1-0.8-1.6c-0.1-0.2-0.2-0.3-0.2-0.3c0.1-0.5-0.2-0.8-0.4-1.1
		c0,0-0.1-0.1-0.1-0.1l-0.1-0.1l-0.1,0c-0.6,0.1-1.2,0.4-1.2,1.3c0,0.3-0.2,0.6-0.4,1c-0.4,0.6-0.5,1.2-0.3,1.8l0,0.1
		c0.2,0.7,0.5,1.5,0.9,2.2c0.2,0.4,0.5,0.8,0.8,1.1c0.4,0.5,0.7,0.6,1.4,0.7c0.1,0.1,0.2,0.2,0.2,0.2c0.2,0.2,0.4,0.4,0.6,0.5
		c0.2,0.2,0.3,0.4,0.4,0.7l0,0.1c0.2,0.8,0.4,1.7,0.6,2.6c0,0.1,0,0.2,0,0.3c0,0,0,0,0,0.1c0,0-0.1,0-0.1,0c-0.8-1-1.9-1.7-2.9-2.2
		c-0.7-0.4-1.2-0.9-1.6-1.4c-0.3-0.3-0.6-0.7-1-1c-0.8-0.7-1.4-1.5-2.2-2.4c-0.2-0.2-0.3-0.5-0.4-0.9c-0.1-0.5-0.3-0.8-0.8-0.9
		c0,0,0,0,0,0c0,0,0,0,0,0l0-0.1c0-0.2,0-0.3,0.1-0.5c0-0.1,0-0.1,0-0.2c0-0.1,0-0.1,0-0.2c0.1-0.9,0.4-1.6,1-2.1
		c0.3-0.2,0.4-0.6,0.6-0.9c0.2-0.6,0.6-1,1.3-1.1c0.3-0.1,0.5-0.1,0.8-0.2c0.3-0.1,0.7-0.2,1.1-0.3c0.6-0.1,1.2-0.2,1.8-0.2
		c1,0,1.9,0.1,2.8,0.3c0.7,0.2,1.2,0.6,1.6,1.2c0.1,0.1,0.1,0.2,0.2,0.3l0,0l-0.2,0.1c-0.2,0.1-0.5,0.2-0.7,0.2
		c-0.2,0.1-0.5,0.3-0.5,0.9c0,0.2,0,0.4,0.1,0.6c0.1,0.3,0.3,0.5,0.6,0.6c0.2,0,0.5-0.1,0.8-0.4c0.3-0.3,0.5-0.7,0.5-1.2
		c0.1-0.1,0.2,0,0.3,0l0.7,0.5c0.8,0.5,1.6,1,2.4,1.6c0.6,0.4,1.1,0.7,1.8,0.9c0.2,0,0.4,0.1,0.6,0.2c0.3,0.1,0.4,0.3,0.5,0.6
		c0.1,0.2,0.2,0.5,0.3,0.7c0,0.1,0.1,0.2,0.1,0.3c-0.1,0.2-0.2,0.3-0.4,0.3c-0.2,0-0.5,0.1-0.7,0.1c-0.6,0.1-1.2,0.2-1.9,0.1
		C155.3,44.9,155,44.9,154.6,45z M112,62.2c-0.4,0.3-0.8,0.5-1.4,0.6c0.4-0.2,0.8-0.3,1.2-0.5L112,62.2z M92.4,75.6
		c0-0.4,0.1-0.7,0.5-1.1c0.1,0.1,0.1,0.1,0.1,0.2c0,0,0,0.1,0,0.1c0.1,0.8,0.3,1.3,0.9,1.7c0.2,0.2,0.4,0.3,0.6,0.5
		c0.3,0.3,0.7,0.6,1.1,0.8c0.1,0,0.1,0.1,0.2,0.2c0,0,0,0,0,0c-0.2,0.1-0.4,0.1-0.6,0.1c-0.6-0.1-1.2-0.2-1.8-0.3l-0.7-0.1l-0.2-1.5
		C92.4,76.1,92.4,75.8,92.4,75.6z M116,70L116,70c0.1-0.1,0.1-0.1,0.2-0.1c0.1,0,0.2,0,0.3-0.1c0,0,0,0,0,0c0,0,0,0,0,0
		c0,0.1,0,0.2,0,0.2c0,0-0.1,0-0.3,0C116.1,70.1,116.1,70.1,116,70z"/>
	<path class="st0" d="M92.6,69.8c-0.1,0-0.2,0.1-0.2,0.2c0,0-0.1,0.1-0.1,0.1l-0.1,0.1l0.1,0.1c0,0,0.1,0.1,0.1,0.1
		c0.1,0.1,0.2,0.1,0.3,0.1c0.1,0,0.2,0,0.2,0c0.1,0,0.3,0,0.3-0.1c0.1-0.1,0.1-0.3,0.1-0.4c0-0.1,0-0.1,0-0.2l0-0.2l-0.2,0
		c-0.1,0-0.1,0-0.2,0C92.8,69.7,92.7,69.8,92.6,69.8z"/>
</g>
<path class="st1" d="M12.5,88.5c-0.2-0.5-0.4-1-0.6-1.5c-0.8-1.8-1.1-3.7-0.7-5.7c0.7-4.5,3.1-8,6.8-10.7c0.6-0.4,1.1-0.7,1.8-0.7
	c2.5,0,4.6,0.7,6.5,2.3c3.2,2.7,5.3,6,7.3,9.6c1.1,1.9,2.2,3.8,3.2,5.7c0.7,1.4,1.6,2.6,1.9,4.2c0.1,0.7,0.7,1.4,1,2.1
	c0.7,1.7,1.5,3.4,2.2,5.1c1.1,2.7,2.5,5.4,4,7.9c0.2,0.3,0.5,0.5,0.7,0.8c1.2,1.3,0.6,3.5-1,4.1c-0.3,0.1-0.7,0.3-1,0.3
	c-2.3,0.1-4.4,1-6.6,1.2c-2.2,0.2-4.4,0.5-6.5,0.8c-1.1,0.1-2.1,0.4-3.1,0.7c-1.3,0.3-2.6,0.3-3.8-0.1c-0.5-0.2-1.2-0.1-1.7,0
	c-5.5,1.1-10.6-0.1-15.3-3.1c-1.7-1.1-3.3-2.5-4.6-4.1c-3.4-4.2-3.7-8.7-0.8-13.5c0.9-1.4,2.1-2.5,3.7-3.3c1.8-0.9,3.7-1.5,5.8-1.5
	c0.2,0,0.5,0,0.7-0.1C12.2,88.7,12.3,88.6,12.5,88.5z"/>
<g>
	<path class="st1" d="M172.2,0.8c-4.9-1.3-10.1-1-15.9,1.2c-1.9,0.7-3.8,1.4-5.5,2.2c-0.5,0.2-1,0.4-1.4,0.6
		c-1.9,0.8-3.8,1.7-5.5,2.7c-5.4,3.5-8.8,6.6-11.2,10.2c-0.3,0.4-0.7,0.8-1.1,1.1c-0.2,0.2-0.4,0.3-0.6,0.5l-0.5,0.5l-0.6-0.4
		c-0.2-0.1-0.4-0.2-0.5-0.3c-0.3-0.2-0.6-0.3-0.8-0.5c-3.1-3.3-7-5.9-12.6-8.3c-5.6-2.5-11.9-4-17.9-5.4l-0.8-0.2
		c-0.3-0.1-0.6-0.1-1-0.1l-0.2,0c-1.7-0.2-3.3-0.3-4.9-0.3c-5.7-0.2-11,0.1-15.9,1.1C73,5.9,71,6.6,69.1,7.6
		c-1.9,1.1-3.8,2.3-5.1,4.1c-0.4,0.6-0.9,1-1.4,1.5c-0.3,0.3-0.6,0.6-0.9,0.9c-0.8,0.9-1.4,1.7-1.9,2.5c-2.8,3.9-4.7,8.3-5.9,13.5
		c-1.3,5.6-1.6,10.2-0.9,14.7l0.4,2.2c0.6,3.5,1.2,7.2,2.1,10.7c0.1,0.5,0.3,1.1,0.4,1.6c0.7,2.8,1.5,5.8,2.9,8.5l1.1,2.1
		c1.4,2.8,2.9,5.8,4.3,8.7c1.2,2.6,2.9,6,5.3,9.1c0.2,0.2,0.4,0.5,0.6,0.7c0.9,1.2,1.8,2.4,3,3.3c0.5,0.3,0.9,0.7,1.3,1.1
		c0.4,0.3,0.7,0.6,1.1,0.9c0.9,0.7,1.6,1.5,2.3,2.3c0.6,0.7,1.1,1.3,1.7,1.8c0.8,0.7,1.6,1.5,2.2,2.3c1,1.1,2,2.2,3.3,3
		c0.5,0.3,0.8,0.7,1.1,1.1c0.1,0.1,0.2,0.3,0.3,0.4c0.1,0.1,0.2,0.3,0.3,0.4c0.2,0.2,0.3,0.5,0.5,0.6c0.7,0.6,1.3,1.2,1.9,1.8
		c1.2,1.1,2.3,2.2,3.8,2.9c0.8,0.3,1.4,0.8,1.9,1.3c0.2,0.2,0.5,0.4,0.7,0.6c1.1,0.8,2.1,1.6,3.1,2.5c1.7,1.5,3.5,3,5.6,4.1
		c0.9,0.5,1.6,1.2,2.2,1.8c0.2,0.2,0.4,0.4,0.7,0.7c0.3,0.3,0.7,0.7,1,1c0.4,0.4,0.7,0.8,1.1,1.1c1,0.9,2,1.7,2.9,2.6
		c1.7,1.5,3.5,3.1,5.2,4.7c0.9,0.9,1.9,1.6,3,2.4c1.4,1,2.9,2.1,4.1,3.5c0.1,0.1,0.4,0.3,0.6,0.3c1.2,0.3,2.5,0.1,3.4-0.5
		c0.5-0.3,1-0.8,1.2-1.5c0.2-1.3,0.9-2.2,2.1-3c0.4-0.3,0.8-0.7,1.2-1.1l1.4-1.5c1.7-1.9,3.5-3.9,5.1-5.9c0.5-0.6,1-1.3,1.4-2
		c0.4-0.7,0.9-1.4,1.4-2c2-2.5,4-5,6-7.4c2.6-3.1,5.1-6.3,7.6-9.4c1.8-2.2,3.3-4.4,4.7-6.6c0.4-0.6,0.8-1.2,1.1-1.9
		c0.8-1.3,1.6-2.7,2.6-4c0.7-1,1.4-2,2.1-3.1c0.5-0.8,1.1-1.6,1.7-2.4c0.8-1.1,1.6-2.3,2.5-3.4c1.5-2.1,3.1-4.3,4.6-6.5l0.2-0.3
		c1.9-2.9,3.9-6,5.2-9.3c0.5-1.5,1.1-2.9,1.6-4.3c0.5-1.2,0.9-2.4,1.3-3.6l0.3-0.9c0.4-1.1,0.8-2.2,1.1-3.3
		c1.8-6.6,3.9-14.4,4.6-22.4c0.5-5.9-0.3-11.7-2.4-17.4C184.7,7.1,179.7,2.8,172.2,0.8z M183.3,33.1c-1.4,10.8-4.4,21.6-9.2,32.8
		c-2.2,5.1-5.1,9.7-7.6,13.6c-1,1.5-2,3.1-3.1,4.6c-2.4,3.5-4.9,7.2-6.9,10.9c-2.6,4.6-6.1,8.8-9.5,12.8l-0.7,0.8
		c-2.3,2.7-4.5,5.5-6.6,8.3c-0.6,0.8-1.3,1.7-1.9,2.5c-1.4,1.8-2.8,3.6-4.1,5.4c-1.4,1.8-2.8,3.7-4.2,5.5c-0.3,0.4-0.7,0.7-1,0.9
		c-0.1,0.1-0.3,0.2-0.4,0.3l-0.4,0.3l-0.5-0.1c-0.2,0-0.3-0.1-0.4-0.1c-0.3-0.1-0.7-0.2-1-0.3c-0.5-0.2-0.9-0.5-1.3-0.8
		c-1.5-1.3-3-2.6-4.5-3.9c-1.1-1-2.2-1.9-3.3-2.9c-0.5-0.4-1-0.9-1.5-1.3c-1.1-1-2.3-2.1-3.6-3c-3.3-2.3-6.2-4.5-8.9-6.7
		c-0.7-0.6-1.5-1.2-2.4-1.7c-4.5-2.8-8.2-5.7-11.2-8.9c-2-2.2-4.1-4.3-6.2-6.3c-1.3-1.3-2.6-2.6-3.9-3.9c-1-1.1-2.1-2.3-3.2-3.7
		c-2.8-3.6-4.6-6.5-5.9-9.5c-1.1-2.4-2.3-4.8-3.5-7.1l-0.9-1.6c-2.2-4.2-3.7-8.7-4.6-13.3c-0.2-1.1-0.4-2.3-0.7-3.4
		c-0.6-3-1.2-6.2-1.6-9.3c-0.7-4.6-0.4-9,0.8-13c0.2-0.8,0.5-1.6,0.7-2.4c0.3-1.1,0.6-2.2,1-3.3c1.1-3.4,2.9-6.7,5.8-10.7
		c0.4-0.6,1-1.2,1.4-1.7c0.2-0.2,0.3-0.4,0.5-0.6c2.6-3,6.4-4.7,11.1-5.1c4.8-0.4,10.1-0.3,16.1,0.2c0.6,0,1.2,0.1,1.8,0.2
		c5.8,1.4,12,3.1,17.8,6l0.1,0c0.4,0.2,0.7,0.4,1.1,0.6c4.2,2.7,7.5,5.6,10.2,8.6c1,1.2,1.4,2.4,1.1,3.7c-0.2,1.2-0.5,2.3-0.8,3.5
		l-0.1,0.4c-0.1,0.4-0.1,0.9,0.7,1.1c1.1,0.3,1.9,0.1,2.7-0.6c0.8-0.6,1.1-1.5,1.3-2.4c0.6-2.7,1.4-5.5,3-8.1
		c3.5-5.9,7.9-10,13.5-12.5c3.3-1.5,6.7-2.9,9.6-4c2.5-1,5.3-1.5,8.2-1.6c3.9-0.1,7.2,1,10.1,3.4c3.6,2.9,5,6.6,6.1,10.2
		C184.3,22.2,183.9,28.4,183.3,33.1z"/>
</g>
<path class="st1" d="M217.8,70c-1.1-2.7-2.1-5.2-2.8-8c-0.3-1.2-0.8-2.3-1.2-3.5c-0.9-3.3-2.3-6.5-3.6-9.6c-0.8-2-1.6-4.1-2.2-6.2
	c-0.2-0.7-0.7-1-1.2-1.5c-0.6-2.8-0.6-5.5-0.1-8.2c0.8-4.2,2.6-7.9,5.9-10.7c1.8-1.6,3.9-2.8,6.3-3.2c1.8-0.3,3.6-0.2,5.3,0.3
	c0.6,0.2,1.2,0.5,1.7,0.9c2.7,2,4.6,4.6,5.4,7.9c0.1,0.5,0.1,1.1,0.7,1.5c0.3-0.3,0.7-0.6,1-1c2-2.3,4.5-4.1,7.3-5.2
	c2.2-0.8,4.6-0.7,6.7,0.6c1.2,0.8,2.2,1.8,3.3,2.7c0.8,0.7,1.2,1.6,1.4,2.6c0.7,4,0.1,7.9-1.7,11.6c-1.5,3.2-3.7,5.9-6.1,8.5
	c-1.4,1.5-2.8,3.1-4.4,4.4c-1.6,1.2-3.1,2.5-4.8,3.6c-1.5,1-3,2.1-4.5,3.2c-2,1.3-3.9,2.6-5.9,4c-1,0.7-1.9,1.4-2.8,2.2
	c-0.4,0.3-0.7,0.8-0.9,1.3C220.1,69.8,219.6,70.1,217.8,70z M219.1,64.7c0.3-0.1,0.5-0.1,0.7-0.3c3.4-2.3,6.7-4.6,10.1-7
	c3.5-2.5,6.9-5,9.9-8.1c2.2-2.3,4.1-4.7,5.8-7.4c1.2-2,2-4.2,2.4-6.5c0.3-1.8,0.3-3.7-0.1-5.5c-0.3-1.3-0.8-2.4-2-3.2
	c-1.6-1.2-3.4-1.2-5-0.4c-1.5,0.7-2.9,1.9-4.1,3.1c-1.9,1.9-3.2,4.1-4.1,6.6c-0.1,0.3-0.2,0.6-0.3,0.8c-0.4,0.8-1.1,1-1.9,0.7
	c-0.5-0.2-1-0.5-1.5-0.8c-0.1-0.3-0.2-0.5-0.2-0.8c0-2.3-0.4-4.5-0.9-6.7c-0.5-2.5-1.5-4.8-3.5-6.7c-0.7-0.6-1.4-1-2.4-1.1
	c-1.6-0.1-3.1,0.1-4.5,0.8c-2.9,1.4-4.8,3.6-6.1,6.5c-0.4,0.9-0.7,1.9-1,2.8c-0.6,1.6-0.7,3.4-0.7,5.1c0,0.6,0.1,1.2,0.3,1.7
	c0.7,1.8,1.2,3.6,1.7,5.4c0.7,2.4,1.5,4.8,2.5,7c0.9,1.8,1.5,3.6,2.1,5.5c0.8,2.5,1.6,5.1,2.4,7.6C218.8,64.1,218.9,64.4,219.1,64.7
	z"/>
</svg>
